{"title":"Royal.Opera.House.Romeo.And.Juliet.1080i.HDTV.MPEG2-mixman.ts","uid":7124110,"size":21062116768,"categoryP":"video","categoryS":"hd___tv_shows","magnet":"?xt=urn:btih:27389920218101866b381c7cb65bbc019f7d41ce&amp;dn=Royal.Opera.House.Romeo.And.Juliet.1080i.HDTV.MPEG2-mixman.ts&amp;tr=udp%3A%2F%2Ftracker.openbittorrent.com%3A80&amp;tr=udp%3A%2F%2Fopen.demonii.com%3A1337&amp;tr=udp%3A%2F%2Ftracker.coppersurfer.tk%3A6969&amp;tr=udp%3A%2F%2Fexodus.desync.com%3A6969","seeders":0,"leechers":3,"uploader":"multi7","files":-1,"time":1332463225,"description":" &lt;a href=&quot;http://img845.imageshack.us/img845/5030/royaloperahouseromeoand.jpg&quot; rel=&quot;nofollow&quot; target=&quot;_NEW&quot;&gt;http://img845.imageshack.us/img845/5030/royaloperahouseromeoand.jpg&lt;/a&gt;\n\nROYAL OPERA HOUSE cinema ROMEO AND JULIET (SAT FEED)\n\nCast:\nRomeo: Federico Bonelli\nJuliet: Lauren Cuthbertson\n\nCredits Music: Sergey Prokofiev\nConductor: Barry Wordsworth \n\n\nFile/Media info:\n\nComplete name: Romeo.And.Juliet.HDTV.1080i.ts\nFormat: MPEG-TS\nFile size: 19.6 GiB\nDuration: 2h 46mn\nOverall bit rate mode: Variable\nOverall bit rate: 16.9 Mbps\n\nVideo\nID                       : 308 (0x134)\nMenu ID                  : 1 (0x1)\nFormat                   : MPEG Video\nFormat version           : Version 2\nFormat profile           : Main@High\nFormat settings, BVOP    : Yes\nFormat settings, Matrix  : Custom\nFormat settings, GOP     : M=3, N=12\nCodec ID                 : 2\nDuration                 : 2h 46mn\nBit rate mode            : Variable\nBit rate                 : 15.6 Mbps\nMaximum bit rate         : 16.0 Mbps\nWidth                    : 1 920 pixels\nHeight                   : 1 080 pixels\nDisplay aspect ratio     : 16:9\nFrame rate               : 25.000 fps\nColor space              : YUV\nChroma subsampling       : 4:2:0\nBit depth                : 8 bits\nScan type                : Interlaced\nScan order               : Top Field First\nCompression mode         : Lossy\nBits/(Pixel*Frame)       : 0.301\nStream size              : 18.1 GiB (92%)\n\nAudio\nID                       : 256 (0x100)\nMenu ID                  : 1 (0x1)\nFormat                   : AC-3\nFormat/Info              : Audio Coding 3\nMode extension           : CM (complete main)\nCodec ID                 : 129\nDuration                 : 2h 46mn\nBit rate mode            : Constant\nBit rate                 : 448 Kbps\nChannel(s)               : 6 channels\nChannel positions        : Front: L C R, Side: L R, LFE\nSampling rate            : 48.0 KHz\nBit depth                : 16 bits\nCompression mode         : Lossy\nDelay relative to video  : 17ms\nStream size              : 533 MiB (3%)\nLanguage                 : English\n","torrent":{"xt":"urn:btih:27389920218101866b381c7cb65bbc019f7d41ce","amp;dn":"Royal.Opera.House.Romeo.And.Juliet.1080i.HDTV.MPEG2-mixman.ts","amp;tr":["udp%3A%2F%2Ftracker.openbittorrent.com%3A80","udp%3A%2F%2Fopen.demonii.com%3A1337","udp%3A%2F%2Ftracker.coppersurfer.tk%3A6969","udp%3A%2F%2Fexodus.desync.com%3A6969"],"infoHash":"27389920218101866b381c7cb65bbc019f7d41ce","infoHashBuffer":{"type":"Buffer","data":[39,56,153,32,33,129,1,134,107,56,28,124,182,91,188,1,159,125,65,206]},"announce":[],"urlList":[]}}